<?xml version="1.0" encoding="UTF-8"?>
<svg width="156px" height="60px" viewBox="0 0 156 60" version="1.1" xmlns="http://www.w3.org/2000/svg" xmlns:xlink="http://www.w3.org/1999/xlink">
    <!-- Generator: Sketch 49.3 (51167) - http://www.bohemiancoding.com/sketch -->
    <title>marvel</title>
    <desc>Created with Sketch.</desc>
    <defs></defs>
    <g id="Page-1" stroke="none" stroke-width="1" fill="none" fill-rule="evenodd">
        <g id="Desktop" transform="translate(-245.000000, 0.000000)" fill-rule="nonzero">
            <g id="marvel" transform="translate(245.000000, 0.000000)">
                <rect id="Rectangle-path" fill="#F0141E" x="0" y="0" width="156" height="60"></rect>
                <path d="M133.997617,13.0122823 L133.997617,3 L106.459929,3 L101.932664,36.4772119 L97.4482884,3 L87.5168977,3 L88.6296519,11.9266132 C87.4835389,9.63705751 83.418531,3 74.4712249,3 C74.4116556,3 64.5279203,3 64.5279203,3 L64.499327,51.7851472 L57.2509367,3 L44.245771,3 L36.7567209,53.539106 L36.7567209,3 L24.3115064,3 L19.8247481,31.3890424 L15.4523628,3 L3,3 L3,57.951748 L12.8074866,57.951748 L12.8074866,31.4686582 L17.2680345,57.951748 L22.4815381,57.951748 L26.8801339,31.4686582 L26.8801339,57.951748 L45.7850413,57.951748 L46.9287715,49.5076545 L54.539343,49.5076545 L55.6830732,57.951748 L74.2424788,57.951748 L74.2567754,57.951748 L74.2806032,57.951748 L74.2806032,40.1129973 L76.5561497,39.7776462 L81.2645058,57.963811 L90.8646913,57.963811 L90.8932846,57.963811 L84.7052275,36.638856 C87.836189,34.2889854 91.3769872,28.3322806 90.4238786,22.6457867 C90.4238786,22.7181647 96.2569028,58 96.2569028,58 L107.675143,57.963811 L115.490633,8.13400886 L115.490633,57.951748 L134,57.951748 L134,48.0600956 L125.209957,48.0600956 L125.209957,35.4639207 L133.997617,35.4639207 L133.997617,25.4371628 L125.209957,25.4371628 L125.209957,13.0122823 L133.997617,13.0122823 Z M48,40 L50.4533218,17 L53,40 L48.0065132,40 L48,40 Z M76.4684873,30.4371928 C75.6995597,30.8000134 74.8561024,30.992319 74,31 L74,13 L74.0510018,13 C74.8721309,13 80.9999977,13.2457673 80.9999977,21.9066084 C81.0025478,26.4361005 78.916574,29.3042054 76.4684873,30.4445658 L76.4684873,30.4371928 Z M153.995251,48.1018348 L153.995251,58 L136,58 L136,3 L145.689751,3 L145.689751,48.1090773 L154,48.1090773 L153.995251,48.1018348 Z" id="Shape" fill="#FFFFFF"></path>
            </g>
        </g>
    </g>
</svg>